<svg xmlns="http://www.w3.org/2000/svg" viewBox="0 0 32 32">
  <path d="M17.9 20h-.7c-.4 0-.6-.3-.6-.6 0-.1 0-.2.1-.3.4-.4.8-.9 1-1.4.1.1.1.1.2.1.4 0 .8-.8.8-1.4s0-1-.4-1h-.1c0-1.5-.4-3.4-2.8-3.4s-2.7 1.9-2.8 3.4h-.1c-.4 0-.4.5-.4 1 0 .6.4 1.4.8 1.4h.1c.2.5.6 1 .9 1.4.1.1.2.2.2.4 0 .4-.3.6-.7.6h-.7c-1.4 0-2.6 1.1-2.6 2.6v.7c0 .5.4.8.8.8h8.7c.4 0 .8-.4.8-.8v-.7c.1-1.5-1.1-2.7-2.5-2.8zm7.8-7.1h-7.3c.2.5.4 1.1.4 1.8.2.1.3.3.4.4h6.5c.3 0 .6-.3.6-.6v-1c0-.4-.3-.6-.6-.6z"/>
  <path d="M25.6 16.9h-6.3c-.2.6-.6 1.3-1.2 1.5l-.1.1v.6h7.6c.3 0 .6-.3.6-.6v-1c.1-.3-.2-.6-.6-.6zm0 4h-4.9c.3.5.5 1.1.5 1.8v.3h4.4c.3 0 .6-.3.6-.6v-1c.1-.3-.2-.5-.6-.5z"/>
  <path d="M28.3 6.8H8.1c-2.1 0-3.7 1.7-3.7 3.7v14.8c0 2.1 1.7 3.7 3.8 3.7h20.1c2.1 0 3.8-1.7 3.8-3.7V10.6c0-2.1-1.7-3.8-3.8-3.8zm1.9 18.6c0 1.1-.9 2-2 2H8.1c-1.1 0-2-.9-2-2V10.6c0-1.1.9-2 2-2h20.1c1.1 0 2 .9 2 2v14.8z"/>
  <path d="M3.7 4.6h20.1c.8 0 1.5.5 1.8 1.2h1.8c-.4-1.7-1.9-3-3.7-3h-20C1.7 2.8 0 4.5 0 6.6v14.8c0 2 1.5 3.5 3.4 3.7v-1.8c-.9-.2-1.6-1-1.6-1.9V6.6c0-1.1.9-2 1.9-2z"/>
</svg>
