<svg xmlns="http://www.w3.org/2000/svg" viewBox="0 0 298.3 298.3">
  <path d="M172.7 157c-8.7 0-15.7 7-15.7 15.7s7 15.7 15.7 15.7 15.7-7 15.7-15.7-7-15.7-15.7-15.7zm-47.1-15.7c8.7 0 15.7-7 15.7-15.7s-7-15.7-15.7-15.7-15.7 7-15.7 15.7 7 15.7 15.7 15.7zm47.1-31.4c-8.7 0-15.7 7-15.7 15.7s7 15.7 15.7 15.7 15.7-7 15.7-15.7-7-15.7-15.7-15.7zm15.7-78.5h-78.5v31.4h78.5V31.4zm31.4 109.9c8.7 0 15.7-7 15.7-15.7s-7-15.7-15.7-15.7-15.7 7-15.7 15.7 7 15.7 15.7 15.7zm0 47.1c8.7 0 15.7-7 15.7-15.7s-7-15.7-15.7-15.7-15.7 7-15.7 15.7 7 15.7 15.7 15.7zm-94.2 0c8.7 0 15.7-7 15.7-15.7s-7-15.7-15.7-15.7-15.7 7-15.7 15.7 7 15.7 15.7 15.7zm-47.1 47.1c8.7 0 15.7-7 15.7-15.7s-7-15.7-15.7-15.7-15.7 7-15.7 15.7 7 15.7 15.7 15.7zM266.9 31.4h-15.7v31.4h15.7v204.1H31.4V62.8h15.7V31.4H31.4C14.1 31.4 0 45.5 0 62.8v204.1c0 17.4 14.1 31.4 31.4 31.4h235.5c17.4 0 31.4-14 31.4-31.4V62.8c0-17.3-14-31.4-31.4-31.4zm-188.4 157c8.7 0 15.7-7 15.7-15.7s-7-15.7-15.7-15.7-15.7 7-15.7 15.7 7 15.7 15.7 15.7zm0-47.1c8.7 0 15.7-7 15.7-15.7s-7-15.7-15.7-15.7-15.7 7-15.7 15.7 7 15.7 15.7 15.7zm47.1 94.2c8.7 0 15.7-7 15.7-15.7s-7-15.7-15.7-15.7-15.7 7-15.7 15.7 7 15.7 15.7 15.7zM78.5 62.8c8.7 0 15.7-7 15.7-15.7V15.7C94.2 7 87.2 0 78.5 0S62.8 7 62.8 15.7v31.4c0 8.7 7 15.7 15.7 15.7zm141.3 0c8.7 0 15.7-7 15.7-15.7V15.7c0-8.7-7-15.7-15.7-15.7s-15.7 7-15.7 15.7v31.4c0 8.7 7.1 15.7 15.7 15.7z"/>
</svg>
