<svg xmlns="http://www.w3.org/2000/svg" viewBox="0 0 232.1 232.1">
  <path d="M116 0C52 0 0 52 0 116s52 116 116 116 116-52.1 116-116S180 0 116 0zm-9.3 9h18v18h-18V9zm90.4 107c0 44.7-36.4 81-81 81-44.7 0-81-36.4-81-81s36.3-81 81-81c44.6 0 81 36.3 81 81zM46.7 34l12.7 12.7-12.7 12.8L34 46.7 46.7 34zm-20 91h-18v-18h18v18zm20 73.1L34 185.3l12.7-12.7 12.7 12.7-12.7 12.8zm78 24.9h-18v-18h18v18zm60.6-24.9l-12.7-12.7 12.7-12.7 12.7 12.7-12.7 12.7zm0-138.6l-12.7-12.7L185.3 34 198 46.7c.1 0-12.7 12.8-12.7 12.8zm19.4 65.5v-18h18v18h-18z"/>
  <path d="M50 116c0 36.4 29.6 66 66 66s66-29.6 66-66-29.6-66-66-66-66 29.6-66 66zm97.6-5.6c3.1 5.1 4.1 9.6 4.1 14.9 0 13.2-9.3 20.3-19.9 20.3-7.2 0-11.4-3.4-13.6-6.3L122 153h-12l3.8-13.3c-2.3 2.8-6.4 6.2-13.4 6.2-10.6 0-20-7.2-20-20.5 0-5.4 1-10 4.1-15.1 4.8-7.9 31.7-30.7 31.7-30.7s26.6 22.9 31.4 30.8z"/>
</svg>
