<svg xmlns="http://www.w3.org/2000/svg" viewBox="0 0 343 343">
  <path d="M180.8 176c0 2.2-1.8 4-4 4H89c-2.2 0-4-1.8-4-4v-8.1c0-2.2 1.8-3.9 4-3.9h87.8c2.2 0 4 1.8 4 4v8.1-.1zm123.9 0c0 2.2-1.8 4-4 4H213c-2.2 0-4-1.8-4-4v-8.1c0-2.2 1.8-3.9 4-3.9h87.8c2.2 0 4 1.8 4 4v8.1-.1zm-123.9 43.8c0 2.2-1.8 4-4 4H89c-2.2 0-4-1.8-4-4v-8.1c0-2.1 1.8-3.9 4-3.9h87.8c2.2 0 4 1.8 4 4v8.2-.2zm123.9 0c0 2.2-1.8 4-4 4H213c-2.2 0-4-1.8-4-4v-8.1c0-2.1 1.8-3.9 4-3.9h87.8c2.2 0 4 1.8 4 4v8.2-.2zm-123.9 43.7c0 2.2-1.8 4-4 4H89c-2.2 0-4-1.8-4-4v-8.1c0-2.2 1.8-3.9 4-3.9h87.8c2.2 0 4 1.8 4 4v8.2-.2zm123.9 0c0 2.2-1.8 4-4 4H213c-2.2 0-4-1.8-4-4v-8.1c0-2.2 1.8-3.9 4-3.9h87.8c2.2 0 4 1.8 4 4v8.2-.2z"/>
  <path d="M.4 98.4L46.3 300c.9 4.4 2.6 7.5 4.8 9.1 3.5 4.8 9.3 8 15.8 8h256.6c10.7 0 19.5-8.7 19.5-19.5V45.2c0-10.7-8.7-19.4-19.5-19.4H66.9c-10.7 0-19.5 8.7-19.5 19.4 0 0-2.8 128.6 0 171.9.4 6.3-1.2 9.2-1.3 8.8C38 195.2 14.5 95.5 14.5 95.5c-.2-1-.1-1.9.4-2.4.4-.5 1.3-.8 2.3-.8h11.2s4.2.1 4.2-3.3v-7.7c0-3.4-4.2-3.3-4.2-3.3H17.2c-5.4 0-10.3 2.2-13.5 6.2-3.2 3.7-4.4 9-3.3 14.2zm61.5-53.1c0-2.7 2.3-5 5.1-5h256.6c2.7 0 5.1 2.3 5.1 5v252.4c0 2.8-2.3 5.1-5 5.1H66.9c-2.8 0-5.1-2.3-5.1-5 .1-.1.1-252.5.1-252.5z"/>
  <path d="M303.3 63.1H86.4c-1.9 0-3.6 1.6-3.6 3.6v68.1c0 1.9 1.6 3.5 3.5 3.5h216.9c2 0 3.5-1.6 3.5-3.6v-68c.2-2-1.4-3.6-3.4-3.6zm-150.9 57.5c0 1.8-1.5 3.3-3.3 3.3h-1.4c-1.6 0-3.4-1-4.3-2.3L131.7 103l-2.3-3.7c-.2-.3-2.4-3.9-4.7-8.1-.2-.4-.5-.3-.4.1.1 3.2.2 8.3.2 12.8v16.5c0 1.8-1.5 3.2-3.3 3.2h-1c-1.8 0-3.3-1.5-3.3-3.3V81c0-1.8 1.5-3.2 3.3-3.2h1.8c1.6 0 3.4 1 4.2 2.3L138 98.6c.6 1 1.7 2.7 2.3 3.7.1.2 2.3 3.8 4.3 7.5.1.2.4.4.3-.1-.1-3.2-.4-8.1-.4-12.6V81c0-1.8 1.5-3.3 3.3-3.3h1c1.8 0 3.3 1.5 3.3 3.3v39.6h.3zm34.6 0c0 1.8-1.5 3.3-3.3 3.3h-20.3c-1.8 0-3.3-1.5-3.3-3.3V81c0-1.8 1.5-3.3 3.3-3.3h19.4c1.8 0 3.2 1.5 3.2 3.3v.4c0 1.8-1.5 3.3-3.3 3.3H169c-.6 0-1.1.4-1.1 1v9.5c0 .6.5 1.1 1.1 1.1h12.7c1.8 0 3.3 1.4 3.3 3.2v.3c0 1.8-1.5 3.2-3.3 3.2H169c-.6 0-1.1.5-1.1 1.1v11.5c0 .6.5 1.1 1.1 1.1h14.7c1.8 0 3.3 1.4 3.3 3.2v.7zm56.9-39.4l-11.3 39.7c-.5 1.6-2.1 2.9-3.8 2.9h-1.6c-1.7 0-3.3-1.3-3.7-2.9l-4.5-18.7c-.3-1.2-.7-3.1-1-4.3-.1-.2-.8-3.5-1.5-7-.6 2.4-1.4 5.9-2.3 9.1l-5.7 20.7c-.5 1.6-2.2 2.9-3.8 2.9h-1.6c-1.7 0-3.4-1.3-3.8-2.9l-10-39.6c-.3-.9-.1-1.8.4-2.4s1.3-1 2.2-1h1.6c1.7 0 3.3 1.3 3.7 2.9l4.2 18 1 4.2c0 .1.6 2.7 1.5 6.8.3 1.2.6.4.7-.2.6-2.6 1.4-6 2.1-8.8l5.3-20.1c.4-1.6 2.1-2.9 3.8-2.9h1.6c1.7 0 3.4 1.3 3.8 2.9l4.4 18.1 1 4.2c0 .2.8 3.4 1.5 6.9.1.4.2 1 .4.3.6-2.8 1.4-6.1 2.2-9.4l5.2-20c.4-1.6 2.1-2.9 3.8-2.9h1.5c.9 0 1.7.4 2.2 1.1.5.7.6 1.6.4 2.4h.1zm14 43.3c-4.4 0-9.4-2-9.6-2.1-1.6-.7-2.5-2.5-2-4.2 0 0 .7-2.6 1-3.4.2-.4.6-.3.6-.3l.8.5c2.8 1.7 6.3 2.7 9.6 2.7 5 0 8.1-2.5 8.1-6.4 0-3.1-1.3-5.3-7.6-7.7-8.4-3-12.3-7.3-12.3-13.4 0-7.7 6.3-13 15.3-13 5.4 0 8.7 1.4 10.2 2.3l.3.1s.5.3.3.8l-1 2.8c-.4 1.2-1.5 2-2.8 2-.4 0-.9-.1-1.3-.3 0 0-2.2-1.1-5.9-1.1-5.3 0-7.2 2.9-7.2 5.5 0 3.3 2 5.1 8.1 7.4 8.4 3.2 11.9 7.4 11.9 13.9 0 6.3-4.3 13.7-16.4 13.7l-.1.2z"/>
</svg>
