<?xml version="1.0" encoding="utf-8"?>
<!-- Generator: Adobe Illustrator 19.2.1, SVG Export Plug-In . SVG Version: 6.00 Build 0)  -->
<svg version="1.1" id="Layer_1" xmlns="http://www.w3.org/2000/svg" xmlns:xlink="http://www.w3.org/1999/xlink" x="0px" y="0px"
	 viewBox="0 0 383 383" style="enable-background:new 0 0 383 383;" xml:space="preserve">
<style type="text/css">
	.st0{fill:#FFFFFF;stroke:#FFFFFF;stroke-linecap:round;stroke-miterlimit:10;}
	.st1{fill:#FFFFFF;}
	.st2{font-family:'MyriadPro-Regular';}
	.st3{font-size:40.2619px;}
	.st4{fill:#D1D3D4;}
	.st5{fill:#FFFFFF;stroke:#FFFFFF;stroke-width:2;stroke-miterlimit:10;}
	.st6{font-size:62.973px;}
	.st7{stroke:#000000;stroke-width:2;stroke-miterlimit:10;}
</style>
<path d="M219.8,382.7c-92.6,13.7-179.5-41.2-209.2-126.4c-3.9-11.3-6.9-23.1-8.7-35.4C-13.6,116,58.8,18.5,163.7,3
	s202.4,56.9,217.9,161.8S324.6,367.2,219.8,382.7z"/>
<path class="st0" d="M36.9,264.4c0,0-14.5-36.3-14-57.1L0.1,204c2.2,23.3,4.1,32.9,10.4,52.3L36.9,264.4z"/>
<path class="st0" d="M37.3,120.3c0,0-14.8,36.2-14.5,56.9l-22.7,3.1c2.4-23.3,4.4-32.8,10.9-52.2L37.3,120.3z"/>
<polygon class="st0" points="39.4,206.6 61.9,199.8 62.3,183.3 39.4,176.6 "/>
<path class="st0" d="M265.8,346.8c0,0-36.1,14.9-56.9,14.8l-3,22.8c23.3-2.5,32.8-4.6,52.2-11.1L265.8,346.8z"/>
<path class="st0" d="M121.7,348.3c0,0,36.3,14.3,57.1,13.7l3.5,22.7c-23.3-2.1-32.9-3.9-52.4-10.2L121.7,348.3z"/>
<polygon class="st0" points="208,345 200.8,322.6 184.3,322.5 177.9,345.4 "/>
<path class="st0" d="M344.1,116.3c0,0,15.7,35.8,15.9,56.6l22.8,2.6c-2.9-23.2-5.2-32.7-12.2-51.9L344.1,116.3z"/>
<path class="st0" d="M348.3,260.3c0,0,13.6-36.6,12.6-57.4l22.6-3.9c-1.6,23.4-3.3,33-9.2,52.6L348.3,260.3z"/>
<polygon class="st0" points="343.4,174.1 321.1,181.7 321.3,198.1 344.4,204.1 "/>
<path class="st0" d="M122.5,36.9c0,0,36.5-14,57.2-13.2L183.4,1c-23.3,1.9-32.9,3.7-52.4,9.7L122.5,36.9z"/>
<path class="st0" d="M266.6,39.3c0,0-35.9-15.3-56.7-15.2L207,1.3c23.3,2.7,32.8,4.8,52.1,11.6L266.6,39.3z"/>
<polygon class="st0" points="180.2,40.2 186.8,62.8 203.3,63.4 210.3,40.6 "/>
<ellipse transform="matrix(0.9892 -0.1462 0.1462 0.9892 -26.1965 30.1246)" class="st1" cx="191.8" cy="193.2" rx="114.4" ry="114.4"/>
<text transform="matrix(-0.7756 -0.7438 0.6921 -0.7218 126.2673 306.8831)" class="st1 st2 st3">100</text>
<text transform="matrix(0.747 0.7725 -0.7189 0.6952 257.222 78.6717)" class="st1 st2 st3">100</text>
<text transform="matrix(0.7351 -0.7838 0.7294 0.6841 79.3791 126.7098)" class="st1 st2 st3">100</text>
<text transform="matrix(-0.7641 0.7556 -0.7031 -0.7111 309.1017 255.148)" class="st1 st2 st3">100</text>
<ellipse transform="matrix(0.9892 -0.1462 0.1462 0.9892 -26.1994 30.1118)" class="st4" cx="191.7" cy="193.2" rx="104.2" ry="104.2"/>
<text transform="matrix(1 0 0 1 142.0024 211.8633)" class="st5 st2 st6">100</text>
<g>
	<g>
		<path class="st7" d="M118.5,162.1c0,1.1-0.4,3.1-1.1,5.6c-1.8,5.9-5.1,10.5-10.1,9.7c-4.8-0.7-7.2-7.1-4.9-14.9
			c1-3.1,2.1-4.9,2.6-5.6c0.5,0.5,0.7,0.8,1.2,1.3c-0.8,1-1.6,2.6-2.2,4.6c-1.8,5.8-0.2,10.4,3.8,11.1c3.7,0.7,6.6-2.2,8.2-7.4
			c0.5-1.7,0.9-3.4,0.9-4.6C117.5,162,117.9,162,118.5,162.1z"/>
		<path class="st7" d="M117.4,153.8c1.3,1.7,2,2.5,3.4,4c-0.5,1-0.7,1.5-1.1,2.6c-4.6-4.9-6.7-7.6-10.6-13.4c0.7-1.3,1.1-2,1.9-3.3
			c7,0.2,10.5,0.6,17.1,1.9c-0.6,0.9-1,1.3-1.6,2.2c-2.1-0.3-3.2-0.5-5.3-0.7C119.6,149.7,118.8,151,117.4,153.8z M119.5,146.8
			c-2-0.2-3-0.2-5-0.3c-1.1,0-2.1-0.2-3.1-0.3c0,0,0,0,0,0.1c0.6,0.7,1.3,1.5,1.9,2.3c1.1,1.6,1.7,2.4,2.9,4
			C117.5,150.2,118.2,149.1,119.5,146.8z"/>
		<path class="st7" d="M127.7,142.1c1.2-0.6,2.6-1.6,3.8-2.9c1.8-1.9,2.1-3.7,1-4.7c-1-1-2.5-0.8-5,0.8c-3,1.9-5.4,3-7.1,1.7
			c-1.9-1.4-1.5-4.9,1.6-8.2c1.6-1.7,3.2-2.7,4.2-3.1c0.2,0.7,0.3,1,0.6,1.7c-0.7,0.3-2.2,1.1-3.6,2.6c-2.2,2.3-1.9,4-1.1,4.6
			c1.1,0.9,2.5,0.2,5.2-1.4c3.3-2,5.5-2.3,7.1-0.7c1.7,1.7,1.4,4.5-1.7,7.9c-1.3,1.4-2.9,2.7-4,3.2C128.2,143,128,142.7,127.7,142.1
			z"/>
		<path class="st7" d="M131.9,120.2c3.9,4.6,5.9,6.9,9.9,11.4c-0.8,0.6-1.2,0.9-1.9,1.5c-4.1-4.5-6.2-6.7-10.3-11.1
			C130.5,121.3,130.9,120.9,131.9,120.2z"/>
		<path class="st7" d="M145.3,129.1c-3.7-4.8-5.5-7.2-9.2-11.9c1.1-0.7,1.6-1.1,2.7-1.8c4.3,0.9,6.3,1.5,10.3,2.9
			c2.3,0.8,4.1,1.7,5.7,2.6c0,0,0,0,0,0c-1.2-1.7-2.1-3.2-3.2-5.3c-1.2-2.2-1.8-3.3-3-5.5c1-0.5,1.5-0.7,2.5-1.1
			c2.7,5.3,4,8,6.7,13.3c-0.9,0.4-1.4,0.6-2.3,1c-3.6-1.6-5.6-2.3-9.6-3.6c-2.2-0.7-4.4-1.3-6.3-2c0,0,0,0-0.1,0.1
			c1.3,1.4,2.4,2.9,3.8,4.9c1.5,2.1,2.3,3.1,3.8,5.2C146.4,128.4,146,128.6,145.3,129.1z"/>
		<path class="st7" d="M176.3,109.1c0.9,5-2.5,8.2-7.3,9.5c-4.9,1.3-9.4-0.1-11.3-4.2c-1.9-4.3,1-8.8,7-10.4
			C170.9,102.4,175.5,104.8,176.3,109.1z M160.5,113.3c1.2,2.9,4.4,4.8,8.2,3.7c3.9-1,5.5-4.1,4.8-7.4c-0.6-2.9-3.7-5.5-8.4-4.2
			C160.4,106.7,159.3,110.3,160.5,113.3z"/>
		<path class="st7" d="M190,110.8c-0.8,1.9-1.2,2.8-1.9,4.7c-1,0-1.5,0.1-2.6,0.1c2.1-6,3.5-9,6.6-14.9c1.4,0,2.2,0,3.6,0.1
			c2.9,6,4.1,9,5.9,15.2c-1.1-0.1-1.6-0.2-2.6-0.3c-0.6-1.9-1-2.9-1.7-4.8C194.4,110.8,192.9,110.8,190,110.8z M196.8,109.5
			c-0.7-1.7-1.1-2.6-1.9-4.3c-0.5-1-0.8-1.9-1.1-2.7c0,0,0,0-0.1,0c-0.4,0.9-0.7,1.7-1.2,2.6c-0.9,1.7-1.3,2.5-2.1,4.2
			C193.1,109.3,194.3,109.3,196.8,109.5z"/>
		<path class="st7" d="M207,102.1c1.8,0.1,4,0.3,6.3,0.8c4.2,0.9,6.9,2.4,8.4,4.1c1.5,1.7,1.9,3.7,1,5.9c-0.9,2.2-2.6,3.7-4.9,4.5
			c-2.2,0.7-5.3,0.7-8.9-0.1c-1.7-0.3-3.2-0.7-4.4-0.9C205.5,110.6,206,107.8,207,102.1z M207.2,115.3c0.6,0.2,1.5,0.4,2.5,0.6
			c5.3,1.1,8.8-0.1,10.2-3.8c1.2-3.3-0.9-6.4-6.9-7.7c-1.5-0.3-2.6-0.4-3.4-0.5C208.7,108.4,208.2,110.7,207.2,115.3z"/>
		<path class="st7" d="M241.1,123.3c1.1-1.8,2.5-3.9,3.6-5.4c0,0-0.1,0-0.1-0.1c-1.7,1-3.6,2-5.6,3.2c-2.9,1.6-4.3,2.5-7.1,4.3
			c-0.7-0.4-1-0.5-1.7-0.9c0.4-3,0.5-4.5,0.6-7.6c0.1-2.3,0.2-4.3,0.4-6.2c0,0,0,0-0.1,0c-0.9,1.6-2.2,3.8-3.3,5.7
			c-1.3,2.2-2,3.3-3.3,5.5c-0.9-0.4-1.3-0.5-2.2-0.9c2.9-5.2,4.4-7.8,7.6-13c1.4,0.6,2.1,0.9,3.5,1.5c0.1,3.2,0.1,4.8-0.1,7.9
			c-0.1,2-0.4,3.7-0.7,5.3c0,0,0,0,0.1,0c1.2-1.1,2.7-2.1,4.6-3.2c2.9-1.7,4.4-2.5,7.5-4c1.3,0.8,1.9,1.2,3.2,2.1
			c-3.2,5.1-4.9,7.6-8.3,12.6c-0.8-0.6-1.2-0.8-2-1.4C239,126.6,239.7,125.5,241.1,123.3z"/>
		<path class="st7" d="M254.9,123.1c-4.2,4.4-6.3,6.6-10.5,11c-0.8-0.6-1.1-1-1.9-1.6c4-4.5,6-6.8,10.1-11.3
			C253.6,122,254,122.3,254.9,123.1z"/>
		<path class="st7" d="M258.6,126.8c1.2,0.9,2.8,2.4,4.2,3.9c2.2,2.4,3.1,4.3,3.3,6c0.1,1.3-0.3,2.4-1.3,3.1c-1.7,1.1-3.8,0.4-5.7-1
			c0,0,0,0-0.1,0c0.7,1.5,0.4,3-0.6,4.3c-1.3,1.8-2.3,3-2.5,3.6c-0.6-0.9-0.9-1.3-1.6-2.1c0.2-0.5,0.9-1.6,2.1-3.2
			c1.3-1.7,1.2-3.1-0.4-5c-0.7-0.8-1-1.1-1.7-1.9c-2,1.7-3,2.6-5,4.3c-0.7-0.7-1-1.1-1.8-1.8C252.1,132.9,254.3,130.9,258.6,126.8z
			 M255.5,133.5c0.8,0.8,1.2,1.2,1.9,2.1c2,2.2,4.1,3.1,5.5,2c1.6-1.2,1-3.4-1.1-5.8c-0.9-1.1-1.7-1.7-2.1-2
			C258,131.3,257.2,132,255.5,133.5z"/>
		<path class="st7" d="M263.6,149.7c-2.1,0.2-3.2,0.3-5.3,0.5c-0.6-0.9-0.9-1.4-1.5-2.2c6.7-1,10.1-1.3,17.2-1.2
			c0.7,1.3,1.1,2,1.7,3.4c-4.1,5.6-6.3,8.3-11.1,13.1c-0.4-1.1-0.6-1.7-1.1-2.7c1.4-1.6,2.2-2.4,3.5-4
			C265.9,153.7,265.1,152.4,263.6,149.7z M268.3,155.4c1.2-1.5,1.9-2.3,3-3.9c0.7-0.9,1.3-1.6,2-2.3c0,0,0,0,0-0.1
			c-1,0.1-2,0.2-3,0.2c-2,0-3,0-5,0.1C266.6,151.8,267.2,153,268.3,155.4z"/>
		<path class="st7" d="M280.3,161.7c0.4,1.3,0.6,1.9,1,3.2c-5.3,1.4-7.9,2.2-13.2,3.6c1,3.7,1.4,5.6,2.1,9.7c-0.7,0.1-1,0.1-1.6,0.2
			c-0.8-5.1-1.4-7.6-2.8-12.2C271.5,164.5,274.5,163.6,280.3,161.7z"/>
	</g>
</g>
<g>
	<g>
		<path class="st7" d="M157.9,270.8c1-2.4,2.3-5.3,3.4-7.3c0,0-0.1,0-0.1-0.1c-1.9,1.5-4.1,3-6.7,4.5c-3.8,2-5.7,3-9.9,4.6
			c-1.1-0.8-1.7-1.2-2.8-2c0.4-4.2,0.7-6.2,1.5-10.2c0.6-2.9,1.5-5.5,2.4-7.6c0,0,0,0-0.1-0.1c-1.7,1.6-4.1,3.7-6.3,5.5
			c-2.5,2-3.8,3-6.4,5c-1.3-1.2-1.9-1.9-3.1-3.2c6.4-4.2,9.5-6.4,15.6-11c1.3,1.3,1.9,1.9,3.3,3.1c-1.1,3.9-1.5,5.9-2.2,10
			c-0.4,2.6-0.8,4.9-1.3,6.9c0,0,0.1,0.1,0.1,0.1c1.8-1,4-2.1,6.4-3.3c3.9-1.9,5.7-2.9,9.1-5.2c1.5,0.8,2.3,1.2,3.9,1.9
			c-2.6,7-3.8,10.6-6.1,17.7c-1.6-0.7-2.4-1-3.9-1.8C156,275.4,156.6,273.9,157.9,270.8z"/>
		<path class="st7" d="M174.5,265.9c-2.1,7.2-3.1,10.7-5.2,17.9c-1.7-0.5-2.5-0.7-4.2-1.3c2.5-7.1,3.7-10.6,6.1-17.6
			C172.5,265.4,173.2,265.6,174.5,265.9z"/>
		<path class="st7" d="M176.8,285.5c1.4-7.3,2.1-11,3.4-18.3c1.4,0.3,2.2,0.4,3.6,0.5c2.8,4.1,4.5,6.1,8.4,9.9
			c2.2,2.2,4.2,4,5.9,5.8c0,0,0.1,0,0.1,0c-0.6-2.4-0.9-4.7-1.1-7.6c-0.2-3.1-0.4-4.7-0.6-7.8c1.3-0.1,1.9-0.2,3.1-0.3
			c1,7.4,1.4,11.1,2.4,18.5c-1.8,0.2-2.6,0.3-4.4,0.4c-4.6-3.5-6.6-5.4-10.2-9.3c-2-2.2-3.6-4.5-4.7-6.7c0,0-0.1,0-0.1,0
			c-0.1,2.4-0.3,4.6-0.7,7.6c-0.4,3.2-0.6,4.7-1.1,7.9C179.2,285.9,178.4,285.8,176.8,285.5z"/>
		<path class="st7" d="M208.3,282.2c2,0.3,4.9,0.2,7.7-0.7c4.2-1.3,6.1-3.5,5.3-5.2c-0.7-1.6-2.7-1.8-6.8-1.5
			c-5,0.4-8.3-0.6-8.8-3.2c-0.6-2.8,2.2-5.5,7-7.1c2.5-0.9,4.5-1.2,5.8-1.3c0,0.9,0,1.3-0.1,2.2c-1,0-2.8,0.2-5.1,1
			c-3.5,1.2-4.4,2.9-4.1,4.1c0.5,1.7,2.4,2.2,6.6,1.8c5.1-0.5,8.2-0.4,9.4,2.1c1.3,2.6-1.1,6.8-8.8,9.1c-3.1,0.9-6.8,1.2-8.7,0.9
			C207.9,283.5,208.1,283.1,208.3,282.2z"/>
		<path class="st7" d="M223.3,260.1c1.2-0.7,1.8-1,2.9-1.7c2,3,3,4.5,5,7.5c0,0,0.1,0,0.1-0.1c0.3-1,0.6-2,0.8-2.9
			c1.4-4.3,1.8-6.5,2.4-10.8c1.3-1.2,1.9-1.8,3.2-3c-0.4,5-0.9,7.6-2.5,12.8c6.5,0.6,9.9,0.5,17-0.7c-1.5,1.6-2.3,2.4-3.9,3.8
			c-6,0.5-9,0.4-14.5-0.3c-0.5,1.3-0.7,2-1.3,3.3c1.6,2.4,2.4,3.6,4,6c-1.5,1-2.3,1.4-3.8,2.3C229,269.8,227.1,266.5,223.3,260.1z"
			/>
	</g>
</g>
</svg>
