<svg xmlns="http://www.w3.org/2000/svg" id="Layer_1" viewBox="0 0 50 50">
  <style>
    .st0{fill:#D81F2A;}
  </style>
  <path d="M33 7.6h12.7L43 10.3c-.5.5-.5 1.3 0 1.8.3.3.6.4.9.4s.7-.1.9-.4l4.8-4.8c.5-.5.5-1.3 0-1.8l-5-5c-.5-.5-1.3-.5-1.8 0s-.5 1.3 0 1.8L45.4 5H33c-.7 0-1.3.6-1.3 1.3s.6 1.3 1.3 1.3z" class="st0"/>
  <path d="M49.4 25.1c-.8-4.9-4.4-5.6-5.9-5.7-.4 0-.8-.2-1.1-.6-1.2-1.8-2.7-2.3-4.1-2.3-.6 0-1.2.1-1.6.2-.1 0-.3.1-.4.1-.5 0-.9-.2-1.2-.6-1.1-1.6-2.6-2-3.9-2-.3 0-.7 0-1 .1H30c-.8 0-1.5-.7-1.5-1.5V3.6c0-2.4-1.8-3.5-3.6-3.5s-3.6 1.2-3.6 3.6v19.5c0 .6-.4 1.2-.9 1.4-7 2.9 1.7 16.1 3.2 18.4.2.2.2.5.3.7l.4 5c.1.8.7 1.4 1.5 1.4h17c.8 0 1.4-.5 1.5-1.3l.7-5.3c0-.2.1-.4.2-.6 4.6-7.1 5-13.3 4.2-17.8zM17 5.1H4.3L7 2.4c.5-.5.5-1.3 0-1.8-.2-.4-.5-.5-.9-.5s-.6.1-.9.4L.4 5.3c-.5.5-.5 1.3 0 1.8l5 5c.5.5 1.3.5 1.8 0s.5-1.3 0-1.8L4.6 7.7H17c.7 0 1.3-.6 1.3-1.3s-.6-1.3-1.3-1.3z" class="st0"/>
</svg>
