<svg xmlns="http://www.w3.org/2000/svg" id="Layer_1" viewBox="0 0 2208 286">
  <style>
    .st0{fill:#FDEC0A;stroke:#209FDA;stroke-width:12.4996;} .st1{fill:#209FDA;stroke:#209FDA;stroke-width:12.4996;} .st2{fill:#FDEC0A;stroke:#FDEC0A;stroke-width:20.8335;} .st3{fill:#E22227;stroke:#FDEC0A;stroke-width:10.3465;}
  </style>
  <g id="Layer_x0020_1">
    <path d="M1525.9 157.3l24.9-65.1 24.9 65.1h-49.8zm62.2 34.5l28.7 57.4c3.8 8.6 13.4 13.4 23.9 13.4 13.4 0 24.9-8.6 24.9-19.1 0-1.9-1-4.8-1.9-6.7l-88.1-191.5c-3.8-8.6-15.3-13.4-24.9-13.4-10.5 0-21.1 4.8-24.9 13.4l-85.2 188.6c0 1.9-1 4.8-1 6.7 0 10.5 11.5 19.1 24.9 19.1 10.5 0 20.1-4.8 23.9-13.4l23.9-54.6h75.8zM1351.7 73.1h49.8c16.3 0 28.7 11.5 28.7 25.8 0 13.4-12.4 24.9-28.7 24.9h-49.8V73.1zm-50.8-19.2v183.8c0 11.5 11.5 20.1 24.9 20.1 14.4 0 25.8-8.6 25.8-20.1V163h49.8c44 0 78.5-28.7 78.5-64.1 0-36.4-34.5-65.1-78.5-65.1h-75.6c-13.4 0-24.9 8.6-24.9 20.1zm-31.5-2.9c0-10.5-11.5-19.1-24.9-19.1-8.6 0-17.2 2.9-21.1 8.6l-91.9 133.1V51c0-10.5-11.5-19.1-25.8-19.1-13.4 0-24.9 8.6-24.9 19.1v190.5c0 10.5 11.5 19.1 24.9 19.1 8.6 0 17.2-3.8 21.1-9.6l92.9-139.8v129.3c0 10.5 10.5 19.1 24.9 19.1 13.4 0 24.9-8.6 24.9-19.1V51zm-384.9 72.8l44 65.1c2.9 4.8 11.5 7.7 19.1 7.7 7.7 0 16.3-2.9 19.1-7.7l44-69.9v121.6c0 10.5 10.5 20.1 24.9 20.1 13.4 0 24.9-9.6 24.9-20.1V51c0-10.5-11.5-19.1-24.9-19.1-8.6 0-17.2 2.9-21.1 8.6l-67 109.1-67-109.1c-3.8-5.7-13.4-8.6-21.1-8.6-14.4 0-24.9 8.6-24.9 19.1v189.6c0 10.5 10.5 19.1 24.9 19.1 13.4 0 24.9-8.6 24.9-19.1V123.8zm-112 69.9v44c0 10.5 11.5 19.1 23.9 19.1 13.4 0 23.9-8.6 23.9-19.1v-63.2c0-8.6-13.4-15.3-23-18.2V53c0-12.4-7.7-22-21.1-22h-91.9c-13.4 0-25.8 9.6-24.9 22 3.8 51.7 15.3 61.3-21.1 102.4-11.5 0-27.8 8.6-27.8 19.1v66.1c0 10.5 10.5 19.1 23.9 19.1 12.4 0 23.9-8.6 23.9-19.1v-46.9h114.2zM703.6 67.3h49.8v88.1h-66.1c21.1-22 22-57.5 16.3-88.1zm1255 90l25.8-65.1 24.9 65.1h-50.7zm64.2 34.5l28.7 57.4c3.8 8.6 13.4 13.4 23.9 13.4 13.4 0 24.9-8.6 24.9-20.1 0-1.9 0-4.8-1-5.7l-90-191.5c-3.8-8.6-15.3-13.4-24.9-13.4-10.5 0-21.1 4.8-24.9 13.4l-83.3 191.5c-1 1.9-1.9 4.8-1.9 6.7 0 10.5 11.5 19.1 25.8 19.1 9.6 0 20.1-4.8 23.9-13.4l22-57.4h76.8z" class="st0"/>
    <path d="M1861 158.3h269c23.9 1 23.9 32.5 0 33.5h-269v-33.5zm-136.9-3.9h-269c-23.9 1-23.9 33.5 0 33.5h269v-33.5zm-1261.8 2.9l24.9-65.1 24.9 65.1h-49.8zm63.2 34.5l27.8 55.5c4.8 7.7 13.4 13.4 23.9 13.4 14.4 0 24.9-9.6 24.9-20.1 0-1.9 0-4.8-1-5.7l-89-189.6c-3.8-8.6-14.4-13.4-24.9-13.4-9.6 0-21.1 4.8-24.9 13.4L379 232.9c0 1.9-1 4.8-1 5.7 0 11.5 11.5 20.1 24.9 20.1 10.5 0 21.1-4.8 23.9-13.4l22-53.6h76.7z" class="st0"/>
    <path d="M660.5 153.5H363.7c-23.9 1-23.9 33.5 0 33.5h296.8v-33.5zm743.8-27.8h-111.1c-23.9 1-23.9 33.5 0 33.5h111.1v-33.5zM158.8 196.6l-17.2 27.8c-2.9 3.8-4.8 7.7-4.8 11.5 0 13.4 13.4 23 29.7 23 14.4 0 23.9-6.7 28.7-15.3L295.7 59.7c2.9-3.8 4.8-7.7 4.8-12.4 0-12.4-13.4-23-29.7-23-11.5 0-22 5.7-26.8 14.4l-54.6 107.2c-1-2.9-1-3.8-1.9-5.7L129.2 38.6c-4.8-8.6-15.3-14.4-26.8-14.4-16.3 0-29.7 10.5-29.7 23 0 4.8 1 6.7 3.8 11.5l82.3 137.9zm1536.6 63.1c21.1 0 35.4-13.4 42.1-37.3 14.4-43.1 15.3-104.3 15.3-147.4h65.1v161.8c0 12.4 11.5 23 24.9 23 14.4 0 25.8-10.5 25.8-23V54.9c0-14.4-11.5-25.8-25.8-25.8h-111.1c-14.4 0-26.8 11.5-26.8 25.8v23.9c0 49.8-2.9 102.4-16.3 135-10.5 0-21.1 9.6-21.1 21.1.1 16.2 11.6 24.8 27.9 24.8z" class="st0"/>
    <path d="M1498.2 175.5l8.6-23.9 24.9-65.1h37.3l25.8 65.1 8.6 23.9h-1l3.8 8.6 28.7 58.4c0 1 1 1 1.9 1.9 1 0 1.9 1 3.8 1s2.9-1 3.8-1.9h1L1557.5 52c0-1-1-1-1.9-1-1-1-2.9-1.9-4.8-1.9s-3.8 1-5.7 1.9h-1l-84.2 189.6v1c1.9 0 2.9 1 4.8 1s3.8 0 4.8-1l1-1 23.9-55.5 3.8-9.6zm77.5 33.5h-49.8l-19.1 44c-2.9 7.7-8.6 14.4-16.3 18.2-7.7 4.8-16.3 6.7-25.8 6.7-11.5 0-23-3.8-30.6-10.5-8.6-6.7-14.4-16.3-14.4-26.8 0-1.9 1-3.8 1-6.7 1-1.9 1-4.8 1.9-5.7l85.2-189.6c2.9-7.7 9.6-14.4 17.2-18.2 7.7-3.8 17.2-6.7 25.8-6.7s17.2 2.9 24.9 6.7c7.7 3.8 14.4 10.5 18.2 18.2l88.1 191.5c1 1.9 1.9 4.8 2.9 6.7v6.7c0 10.5-4.8 20.1-13.4 26.8-8.6 6.7-19.1 10.5-30.6 10.5-9.6 0-18.2-2.9-25.8-6.7-6.7-3.8-13.4-10.5-16.3-18.2l-23.1-46.9z" class="st1"/>
    <path d="M1331.6 55.8h69.9c26.8 0 48.8 19.1 48.8 43.1 0 11.5-5.7 22-14.4 29.7-8.6 8.6-21.1 13.4-34.5 13.4h-69.9V55.8zm39.2 35.4v15.3h30.6c2.9 0 4.8-1 6.7-2.9 1-1 1.9-2.9 1.9-4.8 0-4.8-3.8-7.7-8.6-7.7h-30.6zM1321 53.9v184.8c1 1 2.9 1.9 4.8 1.9 2.9 0 3.8-1 4.8-1.9 1 0 1 0 1-1v-91.9h69.9c17.2 0 31.6-5.7 42.1-14.4s17.2-20.1 17.2-32.5c0-13.4-6.7-24.9-17.2-33.5S1418.7 52 1401.5 52h-75.6c-1.9 0-3.8 0-4.8 1v.9zm-40.2 0c0-11.5 5.7-21.1 14.4-27.8 8.6-5.7 19.1-9.6 30.6-9.6h75.6c26.8 0 51.7 8.6 68.9 23 18.2 15.3 29.7 36.4 29.7 59.4s-11.5 43.1-29.7 58.4c-17.2 14.4-42.1 23.9-68.9 23.9h-30.6v56.5c0 11.5-4.8 21.1-13.4 27.8-8.6 5.7-19.1 10.5-31.6 10.5-11.5 0-22-4.8-30.6-10.5-8.6-6.7-14.4-16.3-14.4-27.8V53.9z" class="st1"/>
    <path d="M1250.2 51h-1c-1-1-2.9-1.9-4.8-1.9s-2.9 1-3.8 1h-1l-36.4 52.7 35.4 8.6v129.2s1 0 1 1c1 0 2.9 1 4.8 1s3.8-1 4.8-1c0-1 1-1 1-1V51zm-74.7 91.9l-27.8 39.3-36.4-8.6V51h-1c-1-1-2.9-1.9-4.8-1.9s-3.8 1-4.8 1.9v190.5c1 1 2.9 1 4.8 1s2.9 0 4.8-1c0 0-1 1 0 1l65.2-99.6zm114-91.9v189.6c0 10.5-5.7 20.1-14.4 26.8-7.7 6.7-19.1 10.5-30.6 10.5s-23-3.8-30.6-10.5c-8.6-6.7-14.4-16.3-14.4-26.8v-64.1l-55.5 84.2c-3.8 5.7-9.6 10.5-17.2 13.4-5.7 2.9-13.4 3.8-21.1 3.8-11.5 0-22-3.8-30.6-9.6-8.6-6.7-14.4-16.3-14.4-26.8V51c0-10.5 5.7-20.1 14.4-26.8s19.1-10.5 30.6-10.5c12.4 0 23 3.8 31.6 10.5s13.4 16.3 13.4 26.8v60.3l55.5-80.4c4.8-5.7 10.5-9.6 17.2-12.4 6.7-2.9 14.4-4.8 21.1-4.8 11.5 0 23 3.8 30.6 10.5 8.6 6.7 14.4 16.3 14.4 26.8z" class="st1"/>
    <path d="M865.4 123.8l36.4-8.6 25.8 38.3-64.2-103.4c-1-1-1.9-1-3.8-1s-3.8 1-4.8 1.9h-1v189.6l1 1c1 0 2.9 1 4.8 1s3.8-1 4.8-1c0-1 1-1 1-1V123.8zm129.2-13.4l35.4 8.6v121.6s1 0 1 1c1 1 2.9 1 4.8 1s3.8 0 4.8-1c0-1 1-1 1-1V51h-1c-1-1-2.9-1.9-4.8-1.9s-2.9 0-4.8 1l-36.4 60.3zm-90 77.5v52.7c0 10.5-5.7 20.1-14.4 26.8-7.7 6.7-19.1 10.5-30.6 10.5s-23-3.8-30.6-10.5c-8.6-6.7-14.4-16.3-14.4-26.8V51c0-10.5 5.7-20.1 14.4-26.8 7.7-6.7 19.1-10.5 30.6-10.5 6.7 0 14.4 1.9 21.1 4.8 7.7 2.9 13.4 7.7 17.2 13.4l49.8 81.4 49.8-81.4c3.8-5.7 9.6-10.5 17.2-13.4 6.7-2.9 14.4-4.8 21.1-4.8 11.5 0 23 3.8 30.6 10.5 8.6 6.7 14.4 16.3 14.4 26.8v189.6c0 10.5-5.7 20.1-14.4 26.8-7.7 6.7-19.1 10.5-30.6 10.5s-23-3.8-30.6-10.5c-8.6-6.7-14.4-16.3-14.4-26.8V187l-6.7 10.5c-3.8 5.7-9.6 10.5-17.2 12.4v1c-5.7 1.9-12.4 2.9-19.1 2.9-6.7 0-13.4-1-19.1-2.9-7.7-2.9-13.4-7.7-17.2-12.4l-6.9-10.6z" class="st1"/>
    <path d="M792.6 176.4v62.3c1 0 2.9 1 3.8 1 1.9 0 2.9-1 3.8-1l1-1v-60.3c-2.9-1.9-6.7-2.9-9.6-3.8l-14.4-3.8V53c0-1.9 0-3.8-1-4.8v1h-94.8 90.9v124.5h-134c-1.9 0-4.8 1-7.7 1.9 0 1-1-1.9-1-1v66.1h1c1 1 1.9 1 3.8 1 1 0 2.9 0 3.8-1v-64.1h154.4zm-112-126.3s-1 0-1 1h-1c1 11.5 1.9 18.2 2.9 24.9 3.8 28.7 5.7 44-11.5 69.9l1.9-1.9c6.7-6.7 11.5-17.2 13.4-27.8 2.9-14.4 1.9-30.6-1-46l-3.7-20.1zm72.8 161.8h-75.6v28.7c0 10.5-4.8 19.1-13.4 26.8-7.7 5.7-18.2 9.6-29.7 9.6-12.4 0-23-3.8-30.6-10.5-8.6-6.7-13.4-15.3-13.4-25.8v-66.1c0-10.5 6.7-20.1 16.3-26.8 5.7-3.8 13.4-6.7 21.1-8.6 19.1-23.9 17.2-34.5 14.4-59.4-1-8.6-1.9-18.2-2.9-25.8-1-11.5 3.8-21.1 12.4-28.7 8.6-6.7 20.1-11.5 32.5-11.5h91.9c12.4 0 23 4.8 29.7 11.5 6.7 7.7 10.5 17.2 10.5 27.8V145c3.8 1.9 7.7 3.8 10.5 6.7 7.7 5.7 13.4 13.4 13.4 23v63.2c0 10.5-4.8 20.1-13.4 26.8-7.7 6.7-18.2 10.5-30.6 10.5-11.5 0-22-3.8-29.7-10.5-8.6-6.7-13.4-16.3-13.4-26.8v-26zM725.6 84.5c1 12.4 1 25.8-1 37.3-1.9 5.7-2.9 10.5-4.8 16.3h13.4V84.5h-7.6zm1206.2 91l8.6-23.9 24.9-65.1h37.3l25.8 65.1 8.6 23.9h-1l3.8 8.6 29.7 57.4c0 1 1 1.9 1.9 1.9 1 1 1.9 1 3.8 1s3.8 0 4.8-1v-1l-89-190.5c0-1-1-1-1.9-1-1-1-2.9-1.9-4.8-1.9s-3.8 1-5.7 1.9h-1l-83.3 192.4h1c1 1 1.9 1.9 4.8 1.9 1 0 2.9-1 3.8-1 1 0 1-1 1-1l22-57.4 4.9-10.3zm77.6 33.5h-48.8l-18.2 46c-2.9 8.6-9.6 14.4-17.2 19.1-7.7 3.8-16.3 6.7-24.9 6.7-12.4 0-23-3.8-31.6-10.5-8.6-6.7-13.4-16.3-13.4-26.8v-6.7c1-1.9 1.9-4.8 1.9-5.7l84.2-192.4c2.9-7.7 9.6-14.4 17.2-18.2s17.2-6.7 25.8-6.7 17.2 2.9 24.9 6.7c7.7 3.8 14.4 10.5 18.2 17.2l90 192.4c1 1.9 1.9 3.8 1.9 5.7 1 2.9 1 4.8 1 6.7 0 10.5-5.7 20.1-14.4 27.8-7.7 5.7-19.1 9.6-30.6 9.6-9.6 0-18.2-1.9-24.9-5.7-7.7-4.8-13.4-10.5-17.2-18.2l-23.9-47z" class="st1"/>
    <path d="M1840.9 140.1H2131c17.2 1 28.7 9.6 33.5 21.1 1.9 4.8 2.9 9.6 2.9 14.4 0 4.8-1 9.6-2.9 14.4-5.7 10.5-17.2 19.1-34.5 19.1h-289.1v-69zm-96.7-2.9v68.9h-289.1c-17.2-1-28.7-8.6-34.5-20.1-1.9-4.8-3.8-9.6-3.8-14.4 0-4.8 1-9.6 3.8-14.4 4.8-10.5 16.3-20.1 33.5-20.1h290.1zM434.6 175.5l8.6-23.9L469 86.5h37.3l24.9 65.1 8.6 23.9h-1l4.8 8.6 27.8 55.5c0 1 1 1.9 1.9 1.9 1 1 2.9 1 3.8 1 1.9 0 3.8 0 4.8-1l1-1-89-188.5c0-1-1-1-1-1-1.9-1-3.8-1.9-5.7-1.9s-3.8 1-4.8 1.9h-1.9l-82.3 187.6v1c1 1 2.9 1 4.8 1s3.8 0 4.8-1c0 0 1 0 1-1l22-53.6 3.8-9.5zm78.5 33.5h-49.8L446 251.1c-3.8 8.6-9.6 14.4-17.2 19.1-7.7 3.8-16.3 5.7-25.8 5.7-11.5 0-22-3.8-30.6-9.6-8.6-6.7-14.4-16.3-14.4-27.8 0-1 1-3.8 1-5.7 1-2.9 1-4.8 1.9-6.7l83.3-187.6c3.8-7.7 9.6-14.4 18.2-18.2 6.7-3.8 16.3-6.7 24.9-6.7 8.6 0 18.2 2.9 25.8 6.7 7.7 3.8 13.4 10.5 17.2 17.2l89 189.6v1c1 1 1.9 3.8 1.9 5.7 1 2.9 1 4.8 1 6.7 0 10.5-5.7 20.1-14.4 26.8-7.7 6.7-18.2 10.5-30.6 10.5-8.6 0-17.2-1.9-24.9-6.7-6.7-3.8-13.4-9.6-17.2-17.2l-22-44.9z" class="st1"/>
    <path d="M680.6 136.2v68.9H363.7c-17.2-1-28.7-8.6-34.5-20.1-1.9-4.8-3.8-9.6-3.8-14.4 0-4.8 1-9.6 3.8-14.4 4.8-10.5 16.3-20.1 33.5-20.1h317.9zm743.8-28.7v69.9h-131.2c-17.2-1-28.7-9.6-34.5-20.1-1.9-4.8-2.9-9.6-3.8-14.4 0-4.8 1.9-9.6 3.8-14.4 4.8-10.5 16.3-20.1 33.5-21.1h132.2zM181.8 196.6l-5.7 8.6-17.2 27.8c-1 1-1.9 1.9-1.9 2.9s1 2.9 1.9 3.8c1.9 1 4.8 1.9 7.7 1.9s4.8-1 5.7-1.9c1.9-1 3.8-1.9 4.8-3.8L278.5 52c1-1 1.9-2.9 1.9-3.8v-1c0-1 0-1.9-1-2.9-1.9-1.9-4.8-1.9-8.6-1.9-1.9 0-3.8 0-5.7 1l-2.9 2.9-54.6 106.3-37.3-1.9v-1.9h-1 1L111.9 46.3l-2.9-2.9c-1.9-1-4.8-1-6.7-1-2.9 0-5.7 0-7.7 1.9-1 1-1.9 1.9-1.9 2.9s1 1.9 1 2.9L177 187.9l4.8 8.7zm-45-1L59.3 66.4c-1.9-2.9-2.9-4.8-3.8-7.7-1.9-3.8-1.9-7.7-1.9-11.5 0-11.5 5.7-22 15.3-29.7C77.5 10.8 89 7 102.4 7c9.6 0 18.2 1.9 25.8 5.7 8.6 4.8 15.3 10.5 19.1 18.2l42.1 73.7 37.3-72.8v-1c3.8-7.7 10.5-13.4 18.2-18.2 7.7-3.8 16.3-5.7 25.8-5.7 13.4 0 24.9 3.8 34.5 10.5 9.6 7.7 15.3 18.2 15.3 29.7 0 4.8-1 8.6-2.9 12.4-1 2.9-2.9 5.7-3.8 8.6l-101.3 183c-3.8 7.7-10.5 14.4-19.1 19.1-7.7 3.8-16.3 6.7-26.8 6.7-12.4 0-24.9-4.8-33.5-11.5-9.6-7.7-15.3-17.2-15.3-29.7 0-3.8 1-7.7 1.9-11.5 1.9-3.8 2.9-6.7 4.8-9.6v1l12.3-20zm1558.6 45.9c4.8 0 8.6-1 12.4-3.8 4.8-3.8 7.7-10.5 10.5-20.1 6.7-20.1 10.5-45 12.4-69.9 1.9-26.8 2.9-51.7 2.9-72.8V56.8H1837v180c0 1.9 1 2.9 1.9 3.8 1 1 2.9 1 3.8 1 1.9 0 3.8 0 4.8-1s1-1.9 1-3.8V54.9c0-2.9 0-4.8-1.9-6.7-1-1-1.9-1.9-3.8-1.9h-111.1c-1.9 0-3.8 1-4.8 2.9-1.9 1-2.9 2.9-2.9 5.7v23.9c0 25.8 0 51.7-2.9 75.6-1.9 23.9-6.7 46.9-13.4 65.1L1703 232h-14.4c-1 1-1.9 1.9-1.9 2.9 0 2.9 1 4.8 1.9 5.7 1 .9 2.9.9 6.8.9zm0 35.5c-14.4 0-25.8-3.8-34.5-11.5s-13.4-17.2-13.4-30.6c0-9.6 4.8-19.1 11.5-25.8 3.8-4.8 8.6-7.7 14.4-9.6 3.8-13.4 6.7-30.6 8.6-47.9 1.9-23.9 2.9-48.8 2.9-72.8V54.9c0-12.4 4.8-23 13.4-30.6s20.1-12.4 33.5-12.4h111.1c13.4 0 24.9 4.8 33.5 12.4 7.7 8.6 12.4 19.1 12.4 30.6v181.9c0 11.5-4.8 21.1-13.4 28.7-8.6 7.7-20.1 11.5-32.5 11.5s-23-3.8-31.6-11.5c-8.6-7.7-13.4-17.2-13.4-28.7V92.2H1773c0 18.2-1 38.3-2.9 57.4-1.9 26.8-5.7 54.6-13.4 77.5-4.8 15.3-11.5 27.8-22 36.4-10.6 8.7-24 13.5-39.3 13.5z" class="st1"/>
    <path d="M1525.9 157.3l24.9-65.1 24.9 65.1h-49.8zm62.2 34.5l28.7 57.4c3.8 8.6 13.4 13.4 23.9 13.4 13.4 0 24.9-8.6 24.9-19.1 0-1.9-1-4.8-1.9-6.7l-88.1-191.5c-3.8-8.6-15.3-13.4-24.9-13.4-10.5 0-21.1 4.8-24.9 13.4l-85.2 188.6c0 1.9-1 4.8-1 6.7 0 10.5 11.5 19.1 24.9 19.1 10.5 0 20.1-4.8 23.9-13.4l23.9-54.6h75.8zM1351.7 73.1h49.8c16.3 0 28.7 11.5 28.7 25.8 0 13.4-12.4 24.9-28.7 24.9h-49.8V73.1zm-50.8-19.2v183.8c0 11.5 11.5 20.1 24.9 20.1 14.4 0 25.8-8.6 25.8-20.1V163h49.8c44 0 78.5-28.7 78.5-64.1 0-36.4-34.5-65.1-78.5-65.1h-75.6c-13.4 0-24.9 8.6-24.9 20.1zm-31.5-2.9c0-10.5-11.5-19.1-24.9-19.1-8.6 0-17.2 2.9-21.1 8.6l-91.9 133.1V51c0-10.5-11.5-19.1-25.8-19.1-13.4 0-24.9 8.6-24.9 19.1v190.5c0 10.5 11.5 19.1 24.9 19.1 8.6 0 17.2-3.8 21.1-9.6l92.9-139.8v129.3c0 10.5 10.5 19.1 24.9 19.1 13.4 0 24.9-8.6 24.9-19.1V51zm-384.9 72.8l44 65.1c2.9 4.8 11.5 7.7 19.1 7.7 7.7 0 16.3-2.9 19.1-7.7l44-69.9v121.6c0 10.5 10.5 20.1 24.9 20.1 13.4 0 24.9-9.6 24.9-20.1V51c0-10.5-11.5-19.1-24.9-19.1-8.6 0-17.2 2.9-21.1 8.6l-67 109.1-67-109.1c-3.8-5.7-13.4-8.6-21.1-8.6-14.4 0-24.9 8.6-24.9 19.1v189.6c0 10.5 10.5 19.1 24.9 19.1 13.4 0 24.9-8.6 24.9-19.1V123.8zm-112 69.9v44c0 10.5 11.5 19.1 23.9 19.1 13.4 0 23.9-8.6 23.9-19.1v-63.2c0-8.6-13.4-15.3-23-18.2V53c0-12.4-7.7-22-21.1-22h-91.9c-13.4 0-25.8 9.6-24.9 22 3.8 51.7 15.3 61.3-21.1 102.4-11.5 0-27.8 8.6-27.8 19.1v66.1c0 10.5 10.5 19.1 23.9 19.1 12.4 0 23.9-8.6 23.9-19.1v-46.9h114.2zM703.6 67.3h49.8v88.1h-66.1c21.1-22 22-57.5 16.3-88.1zm1255 90l25.8-65.1 24.9 65.1h-50.7zm64.2 34.5l28.7 57.4c3.8 8.6 13.4 13.4 23.9 13.4 13.4 0 24.9-8.6 24.9-20.1 0-1.9 0-4.8-1-5.7l-90-191.5c-3.8-8.6-15.3-13.4-24.9-13.4-10.5 0-21.1 4.8-24.9 13.4l-83.3 191.5c-1 1.9-1.9 4.8-1.9 6.7 0 10.5 11.5 19.1 25.8 19.1 9.6 0 20.1-4.8 23.9-13.4l22-57.4h76.8z" class="st2"/>
    <path d="M1861 158.3h269c23.9 1 23.9 32.5 0 33.5h-269v-33.5zm-136.9-3.9h-269c-23.9 1-23.9 33.5 0 33.5h269v-33.5zm-1261.8 2.9l24.9-65.1 24.9 65.1h-49.8zm63.2 34.5l27.8 55.5c4.8 7.7 13.4 13.4 23.9 13.4 14.4 0 24.9-9.6 24.9-20.1 0-1.9 0-4.8-1-5.7l-89-189.6c-3.8-8.6-14.4-13.4-24.9-13.4-9.6 0-21.1 4.8-24.9 13.4L379 232.9c0 1.9-1 4.8-1 5.7 0 11.5 11.5 20.1 24.9 20.1 10.5 0 21.1-4.8 23.9-13.4l22-53.6h76.7z" class="st2"/>
    <path d="M660.5 153.5H363.7c-23.9 1-23.9 33.5 0 33.5h296.8v-33.5zm743.8-27.8h-111.1c-23.9 1-23.9 33.5 0 33.5h111.1v-33.5zM158.8 196.6l-17.2 27.8c-2.9 3.8-4.8 7.7-4.8 11.5 0 13.4 13.4 23 29.7 23 14.4 0 23.9-6.7 28.7-15.3L295.7 59.7c2.9-3.8 4.8-7.7 4.8-12.4 0-12.4-13.4-23-29.7-23-11.5 0-22 5.7-26.8 14.4l-54.6 107.2c-1-2.9-1-3.8-1.9-5.7L129.2 38.6c-4.8-8.6-15.3-14.4-26.8-14.4-16.3 0-29.7 10.5-29.7 23 0 4.8 1 6.7 3.8 11.5l82.3 137.9zm1536.6 63.1c21.1 0 35.4-13.4 42.1-37.3 14.4-43.1 15.3-104.3 15.3-147.4h65.1v161.8c0 12.4 11.5 23 24.9 23 14.4 0 25.8-10.5 25.8-23V54.9c0-14.4-11.5-25.8-25.8-25.8h-111.1c-14.4 0-26.8 11.5-26.8 25.8v23.9c0 49.8-2.9 102.4-16.3 135-10.5 0-21.1 9.6-21.1 21.1.1 16.2 11.6 24.8 27.9 24.8z" class="st2"/>
    <path d="M1526.9 154.4l23.9-62.2 23.9 62.2h-47.8zm168.5 105.3c21.1 0 35.4-13.4 42.1-37.3 14.4-43.1 15.3-104.3 15.3-147.4h65.1v161.8c0 12.4 11.5 23 24.9 23 14.4 0 25.8-10.5 25.8-23v-45h26.8l-19.1 45c-1 1.9-1.9 4.8-1.9 6.7 0 10.5 11.5 19.1 25.8 19.1 9.6 0 20.1-4.8 23.9-13.4l22-57.4h76.6l28.7 57.4c3.8 8.6 13.4 13.4 23.9 13.4 13.4 0 24.9-8.6 24.9-20.1 0-1.9 0-4.8-1-5.7l-21.1-45h51.7c23.9-1 23.9-32.5 0-33.5h-68l-52.7-113c-3.8-8.6-15.3-13.4-24.9-13.4-10.5 0-21.1 4.8-24.9 13.4l-49.8 113h-41.2V54.9c0-14.4-11.5-25.8-25.8-25.8h-111.1c-14.4 0-26.8 11.5-26.8 25.8v23.9c0 25.8-1 51.7-3.8 75.6h-74.7l-50.7-109.1c-3.8-8.6-15.3-13.4-24.9-13.4-10.5 0-21.1 4.8-24.9 13.4l-48.8 109.1h-22c-23.9 1-23.9 33.5 0 33.5h6.7l-21.1 46c0 1.9-1 4.8-1 6.7 0 10.5 11.5 19.1 24.9 19.1 10.5 0 20.1-4.8 23.9-13.4l23.9-54.6h75.6l28.7 57.4c3.8 8.6 13.4 13.4 23.9 13.4 13.4 0 24.9-8.6 24.9-19.1 0-1.9-1-4.8-1.9-6.7l-22-48.8h54.6c-1.9 9.6-4.8 18.2-7.7 25.8-10.5 0-21.1 9.6-21.1 21.1.5 16.3 12 24.9 28.3 24.9zM158.8 196.6l-17.2 27.8c-2.9 3.8-4.8 7.7-4.8 11.5 0 13.4 13.4 23 29.7 23 14.4 0 23.9-6.7 28.7-15.3L295.7 59.7c2.9-3.8 4.8-7.7 4.8-12.4 0-12.4-13.4-23-29.7-23-11.5 0-22 5.7-26.8 14.4l-54.6 107.2c-1-2.9-1-3.8-1.9-5.7L129.2 38.6c-4.8-8.6-15.3-14.4-26.8-14.4-16.3 0-29.7 10.5-29.7 23 0 4.8 1 6.7 3.8 11.5l82.3 137.9zm1142.1-70.9h-7.7c-23.9 1-23.9 33.5 0 33.5h7.7v78.5c0 11.5 11.5 20.1 24.9 20.1 14.4 0 25.8-8.6 25.8-20.1V163h49.8c44 0 78.5-28.7 78.5-64.1 0-36.4-34.5-65.1-78.5-65.1h-75.6c-13.4 0-24.9 8.6-24.9 20.1v71.8zm-660.5 27.8h-77.5L512.1 45.3c-3.8-8.6-14.4-13.4-24.9-13.4-9.6 0-21.1 4.8-24.9 13.4l-47.9 108.2h-50.7c-23.9 1-23.9 33.5 0 33.5h35.4L379 233c0 1.9-1 4.8-1 5.7 0 11.5 11.5 20.1 24.9 20.1 10.5 0 21.1-4.8 23.9-13.4l22-53.6h76.6l27.8 55.5c4.8 7.7 13.4 13.4 23.9 13.4 14.4 0 24.9-9.6 24.9-20.1 0-1.9 0-4.8-1-5.7L579 187h31.6v53.6c0 10.5 10.5 19.1 23.9 19.1 12.4 0 23.9-8.6 23.9-19.1v-46.9h113.9v44c0 10.5 11.5 19.1 23.9 19.1 13.4 0 23.9-8.6 23.9-19.1v-63.2c0-8.6-13.4-15.3-23-18.2V53c0-12.4-7.7-22-21.1-22h-91.9c-13.4 0-25.8 9.6-24.9 22 4.2 50.7 14.7 61.2-18.8 100.5zm-129.3 0h-46.9l23-61.3 23.9 61.3zm1447.5 3.8l25.8-65.1 24.9 65.1h-50.7zm-1255-90h49.8v88.1h-66.1c21.1-22 22-57.5 16.3-88.1zm180.9 56.5l44 65.1c2.9 4.8 11.5 7.7 19.1 7.7 7.7 0 16.3-2.9 19.1-7.7l44-69.9v121.6c0 10.5 10.5 20.1 24.9 20.1 13.4 0 24.9-9.6 24.9-20.1V51c0-10.5-11.5-19.1-24.9-19.1-8.6 0-17.2 2.9-21.1 8.6l-67 109.1-67-109.1c-3.8-5.7-13.4-8.6-21.1-8.6-14.4 0-24.9 8.6-24.9 19.1v189.6c0 10.5 10.5 19.1 24.9 19.1 13.4 0 24.9-8.6 24.9-19.1V123.8zM1269.4 51c0-10.5-11.5-19.1-24.9-19.1-8.6 0-17.2 2.9-21.1 8.6l-91.9 133.1V51c0-10.5-11.5-19.1-25.8-19.1-13.4 0-24.9 8.6-24.9 19.1v190.5c0 10.5 11.5 19.1 24.9 19.1 8.6 0 17.2-3.8 21.1-9.6l92.9-139.8v129.3c0 10.5 10.5 19.1 24.9 19.1 13.4 0 24.9-8.6 24.9-19.1V51zm82.3 22.1h49.8c16.3 0 28.7 11.5 28.7 25.8 0 13.4-12.4 24.9-28.7 24.9h-49.8V73.1z" class="st3"/>
  </g>
</svg>
