<svg xmlns="http://www.w3.org/2000/svg" id="Layer_1" viewBox="0 0 30 30">
  <style>
    .st0{fill:#010101;}
  </style>
  <path d="M9.4 9.9L2.5 3 5.2.3c.4-.4 1.1-.4 1.5 0l5.4 5.4c.4.4.4 1.1 0 1.5l-1.2 1.2-1.1 1.1-.4.4zm5.7 11.3c-1.1-1-2.2-2-3.3-3.1-1.1-1.1-2.1-2.1-3.1-3.3-.8-.9-1-2.3-.5-3.4l-7.1-7c-1.7 1.7-1.4 5.9.4 9.6.8 1.6 1.8 3.1 2.8 4.4 1 1.4 2.2 2.7 3.4 3.9 1.2 1.2 2.5 2.4 3.9 3.4s2.8 2 4.4 2.8c3.7 1.8 7.9 2 9.6.4l-7.1-7.1c-1.1.4-2.5.2-3.4-.6zm14.6 2.1l-5.4-5.4c-.4-.4-1.1-.4-1.5 0l-1.2 1.2-1.1 1.1-.4.4 6.9 6.9 2.7-2.7c.4-.4.4-1.1 0-1.5z" class="st0"/>
</svg>
